<mxfile host="app.diagrams.net" agent="Mozilla/5.0 (Windows NT 10.0; Win64; x64) AppleWebKit/537.36 (KHTML, like Gecko) Chrome/133.0.0.0 Safari/537.36" version="26.0.14">
  <diagram id="C5RBs43oDa-KdzZeNtuy" name="Page-1">
    <mxGraphModel dx="1434" dy="772" grid="0" gridSize="10" guides="1" tooltips="1" connect="1" arrows="1" fold="1" page="1" pageScale="1" pageWidth="827" pageHeight="1169" background="light-dark(#FFFFFF,#121212)" math="0" shadow="0">
      <root>
        <mxCell id="WIyWlLk6GJQsqaUBKTNV-0" />
        <mxCell id="WIyWlLk6GJQsqaUBKTNV-1" parent="WIyWlLk6GJQsqaUBKTNV-0" />
        <mxCell id="_ZZgkDIMgPhcpV9XFCck-1" value="&lt;div style=&quot;text-align: left;&quot;&gt;&lt;span style=&quot;background-color: transparent; color: light-dark(rgb(0, 0, 0), rgb(255, 255, 255));&quot;&gt;Knowledge Requirements&amp;nbsp;&lt;/span&gt;&lt;/div&gt;&lt;div style=&quot;text-align: left;&quot;&gt;&lt;ul style=&quot;line-height: 150%;&quot;&gt;&lt;li&gt;Understanding of Spectral Analysis Techniques (STFT, MFCC)&lt;/li&gt;&lt;li&gt;Understanding of Convolutional Neural Network, specifically the VGG16 Architecture&lt;/li&gt;&lt;li&gt;Programming Skills in Python&amp;nbsp;&lt;/li&gt;&lt;li&gt;Audio Data Preprocessing Techniques&lt;br&gt;&amp;nbsp;&lt;/li&gt;&lt;/ul&gt;&lt;div&gt;Hardware Requirements&amp;nbsp;&lt;/div&gt;&lt;div&gt;&lt;ul&gt;&lt;li&gt;Personal Computer with GPU (recommended for Machine Learning)&lt;br&gt;&lt;br&gt;&lt;/li&gt;&lt;/ul&gt;&lt;div&gt;Software Requirements&amp;nbsp;&lt;/div&gt;&lt;/div&gt;&lt;div&gt;&lt;ul&gt;&lt;li&gt;Python (3.11.4)&lt;/li&gt;&lt;li&gt;TensorFlow&lt;/li&gt;&lt;li&gt;Librosa&lt;/li&gt;&lt;/ul&gt;&lt;/div&gt;&lt;/div&gt;" style="rounded=0;whiteSpace=wrap;html=1;" parent="WIyWlLk6GJQsqaUBKTNV-1" vertex="1">
          <mxGeometry x="40" y="100" width="250" height="459" as="geometry" />
        </mxCell>
        <mxCell id="_ZZgkDIMgPhcpV9XFCck-3" value="&lt;font style=&quot;font-size: 17px;&quot;&gt;&lt;b&gt;Process&lt;/b&gt;&lt;/font&gt;&lt;div&gt;&lt;ul&gt;&lt;li&gt;Audio Extraction&lt;/li&gt;&lt;li&gt;Audio Preprocessing&lt;/li&gt;&lt;li&gt;Audio Signal Feature Extraction&lt;/li&gt;&lt;li&gt;AI Model Training and Evaluation&lt;/li&gt;&lt;li&gt;Detected Sleep-Conducing Audio&lt;/li&gt;&lt;li&gt;Prescriptive Analysis&amp;nbsp;&lt;/li&gt;&lt;/ul&gt;&lt;/div&gt;" style="rounded=0;whiteSpace=wrap;html=1;" parent="WIyWlLk6GJQsqaUBKTNV-1" vertex="1">
          <mxGeometry x="333" y="100" width="180" height="230" as="geometry" />
        </mxCell>
        <mxCell id="PE8eyxCFlRUHBymNiUCF-1" value="&lt;b&gt;&lt;font style=&quot;font-size: 17px;&quot;&gt;Input&lt;/font&gt;&lt;/b&gt;" style="text;html=1;align=center;verticalAlign=middle;whiteSpace=wrap;rounded=0;" vertex="1" parent="WIyWlLk6GJQsqaUBKTNV-1">
          <mxGeometry x="130" y="110" width="60" height="30" as="geometry" />
        </mxCell>
        <mxCell id="PE8eyxCFlRUHBymNiUCF-2" value="&lt;font style=&quot;font-size: 17px;&quot;&gt;&lt;b&gt;Output&lt;/b&gt;&lt;/font&gt;&lt;div&gt;&lt;ul&gt;&lt;li&gt;Desktop Application for Detecting Sleep Conducing Mainstream Music&lt;/li&gt;&lt;li&gt;Custom Playlist of Sleep-Conducing mainstream&amp;nbsp;&lt;/li&gt;&lt;li&gt;Recommendation of new music based on identical audio features&amp;nbsp;&lt;/li&gt;&lt;/ul&gt;&lt;/div&gt;" style="rounded=0;whiteSpace=wrap;html=1;" vertex="1" parent="WIyWlLk6GJQsqaUBKTNV-1">
          <mxGeometry x="570" y="100" width="180" height="230" as="geometry" />
        </mxCell>
        <mxCell id="PE8eyxCFlRUHBymNiUCF-7" value="" style="endArrow=classic;html=1;rounded=0;exitX=1;exitY=0.25;exitDx=0;exitDy=0;entryX=0;entryY=0.5;entryDx=0;entryDy=0;" edge="1" parent="WIyWlLk6GJQsqaUBKTNV-1" source="_ZZgkDIMgPhcpV9XFCck-1" target="_ZZgkDIMgPhcpV9XFCck-3">
          <mxGeometry width="50" height="50" relative="1" as="geometry">
            <mxPoint x="387" y="399" as="sourcePoint" />
            <mxPoint x="437" y="349" as="targetPoint" />
          </mxGeometry>
        </mxCell>
        <mxCell id="PE8eyxCFlRUHBymNiUCF-8" value="" style="endArrow=classic;html=1;rounded=0;entryX=0;entryY=0.5;entryDx=0;entryDy=0;exitX=1;exitY=0.5;exitDx=0;exitDy=0;" edge="1" parent="WIyWlLk6GJQsqaUBKTNV-1" source="_ZZgkDIMgPhcpV9XFCck-3" target="PE8eyxCFlRUHBymNiUCF-2">
          <mxGeometry width="50" height="50" relative="1" as="geometry">
            <mxPoint x="387" y="399" as="sourcePoint" />
            <mxPoint x="437" y="349" as="targetPoint" />
          </mxGeometry>
        </mxCell>
      </root>
    </mxGraphModel>
  </diagram>
</mxfile>
